#tb 0: 1/1000
0,          0,          0,        0,      192, 0553e56a9d89aea496421885aab491f5
0,         33,         33,        0,      192, b2a14cf676f7ebf3c50450050f76ad16
0,         66,         66,        0,      192, a308d981e09b50571fb0c8ebdcefe505
0,        100,        100,        0,      192, d592ec625a0ac0373e82610c3eed9864
0,        133,        133,        0,      192, acd19642455e643023b4fb882c3891ba
0,        166,        166,        0,      192, 5af5390fd8c29b795e0ddf83f3f34284
0,        200,        200,        0,      192, 473505aa2a76231725cf2107d6c9dbef
0,        233,        233,        0,      192, 84860db6887e320f2d64f80cf0032e57
0,        266,        266,        0,      192, 408e9cf60e99ae99d204ff08f3196d1a
0,        300,        300,        0,      192, d8af96b79258f9382e911ed38340bdf5
